<svg width="92" height="92" xmlns="http://www.w3.org/2000/svg">
  <g fill-rule="nonzero" fill="none" opacity=".9">
    <path fill="#12B3E9" d="M12.29 59.8h61.59v16.67H12.29z"/>
    <path fill="#1A2C38" d="M12.29 15.69h67.33V59.8H12.29z"/>
    <g fill="#FFF">
      <path d="M28.43 35.55h-.03l-1.31 3.83h2.66zM53.81 65.41h-1l-1 5.45h1a2.61 2.61 0 0 0 2.21-1.07 4.14 4.14 0 0 0 .66-2.39 1.75 1.75 0 0 0-1.87-1.99zM42.57 66.09l-1.66 3.17h2.18l-.48-3.17zM20.8 65.31h-1.54l-.4 2.21h1.63c.4.026.793-.111 1.09-.38a1.27 1.27 0 0 0 .35-.93c0-.57-.35-.9-1.13-.9zM59.12 50.51h-.04l-1.31 3.83h2.66z"/>
      <path d="M0 4v84a4 4 0 0 0 4 4h88V0H4a4 4 0 0 0-4 4zm45.36 46v-2.38h9.79V50h-3.5v8.76h-2.81V50h-3.48zm12.21-2.33h3.17l4 11.09h-2.8l-.8-2.31h-4.07l-.79 2.31h-2.74l4.03-11.09zm-3.45-29.98h2.64l4.38 6.81v-6.81h2.67v11.09h-2.44l-4.54-6.84v6.84h-2.71V17.69zm-4.65 0h2.79v11.09h-2.79V17.69zm-10.57 0h2.79V22h.87l2.89-4.31h3.1l-3.62 5.39 3.9 5.7h-3.29l-3-4.43h-.83v4.43H38.9V17.69zm3 26.06l-2.27-3.56h-.05l-2.29 3.56h-3L38 38.08l-3.51-5.42h3.08L39.7 36l2.06-3.32h3L41.28 38 45 43.75h-3.1zm2.56 3.87v11.09h-2.75V47.62h2.75zm-9.06 9.07a1.78 1.78 0 0 0 2-1.76v-.35h-2v-1.83h4.75v6h-1.9L38 57.38a3.24 3.24 0 0 1-3.07 1.53c-2.77 0-4.91-2-4.91-5.64 0-3.64 2.22-5.85 5.44-5.85 2.34 0 4 1.12 4.64 3l-2.63 1.06a2 2 0 0 0-2-1.68c-1.49 0-2.52 1.18-2.52 3.51-.05 1.97.74 3.38 2.49 3.38h-.04zm-4.4-39h3.17l4 11.09h-2.81l-.8-2.31h-4.07l-.79 2.31H27l4-11.09zm-16 0h3l2.62 5.39 2.6-5.39h3v11.09h-2.64v-6.91l-2.11 4.42h-1.65l-2.11-4.42v6.91H15V17.69zm-.59 15h9.79V35h-3.5v8.77h-2.79V35h-3.48l-.02-2.31zm10.43 20.46c0 3.79-2.34 5.56-5.63 5.56H15V47.62h4.19c3.32 0 5.65 1.73 5.65 5.53zm-.75 17.39l.15 1.7c.005.51.154 1.01.43 1.44h-3.6a2.77 2.77 0 0 1-.3-1.34l-.05-1.2c0-.78-.33-1-1-1h-1.3l-.63 3.55h-3.36l2-11.09h5.07c2.36 0 4 .9 4 2.91a3.29 3.29 0 0 1-2.87 3.22 1.74 1.74 0 0 1 1.46 1.81zm-1.23-26.79l4-11.09h3.17l4 11.09h-2.77l-.8-2.31h-4.07l-.79 2.31h-2.74zm6 3.87v11.09h-2.75V47.62h2.75zm5.76 23.25l-.5 2.81h-8.23l2-11.09h8.24l-.5 2.8h-5l-.26 1.47h4.38l-.43 2.49h-4.38l-.26 1.52h4.94zm9.11 2.81l-.3-2h-3.79l-1 2h-3.39l6-11.09h3.88l2 11.09h-3.4zm14.12-2.26a6.57 6.57 0 0 1-5.28 2.26H48l2-11.09h4.45c3 0 4.89 1.64 4.89 4.53a6.76 6.76 0 0 1-1.45 4.3h-.04zm7.33-1.74l-.71 4h-3.35l.7-4-2.59-7.09h3.62l1.23 3.74 2.59-3.74h3.63l-5.12 7.09zm8-11h-7.7V47.62h2.79v8.77h4.91v2.29zm2.08-29.93h-1.8l-.35-1.33A3.26 3.26 0 0 1 70 29c-2.78 0-4.92-2-4.92-5.65 0-3.65 2.23-5.84 5.45-5.84 2.34 0 4 1.11 4.63 3l-2.62 1.06a2 2 0 0 0-2-1.68C69 19.83 68 21 68 23.33c0 2 .8 3.42 2.54 3.42a1.77 1.77 0 0 0 2-1.76v-.35h-2v-1.82h4.75l-.03 5.93z"/>
      <path d="M32.53 20.58h-.03l-1.31 3.83h2.65zM17.81 50v6.44h1.25c1.63 0 2.89-.92 2.89-3.24 0-2.32-1.26-3.2-2.87-3.2h-1.27z"/>
    </g>
    <path d="M91.5 91.5V.5H4A3.5 3.5 0 0 0 .5 4v84A3.5 3.5 0 0 0 4 91.5h87.5z" stroke="#7A8796"/>
  </g>
</svg>
